<svg width="533" height="533" viewBox="0 0 533 533" fill="none" xmlns="http://www.w3.org/2000/svg">
<path d="M239.703 1.18926C224.903 2.5226 198.503 8.1226 183.836 12.9226C123.436 32.6559 70.3693 75.1893 37.1693 130.523C3.56931 186.389 -8.03069 256.256 5.56931 320.789C40.7693 487.323 220.103 578.789 375.303 509.323C438.903 480.789 490.903 425.856 514.903 361.723C533.303 312.523 537.303 261.723 526.903 211.589C515.969 159.723 491.836 115.856 452.903 77.0559C420.503 44.7893 379.303 20.9226 335.569 9.18927C305.036 1.05593 270.636 -1.8774 239.703 1.18926ZM233.969 155.189L233.569 233.723L155.036 234.123C111.703 234.256 75.9693 233.989 75.436 233.456C74.9026 232.789 76.1026 225.723 78.236 217.723C81.836 203.323 89.3026 184.923 97.436 170.389C119.569 130.389 159.836 97.1893 204.236 82.3893C217.036 78.1226 231.969 74.6559 233.303 75.7226C233.836 76.1226 234.103 111.856 233.969 155.189ZM327.569 81.9893C349.436 89.0559 375.569 103.989 392.903 119.189C412.503 136.389 427.703 155.723 438.903 177.856C449.303 198.389 459.969 232.523 456.369 233.856C455.569 234.123 419.836 234.256 376.903 234.123L298.903 233.723L298.503 155.723C298.369 112.789 298.503 77.0559 298.769 76.1226C299.569 74.2559 311.969 76.7893 327.569 81.9893ZM233.969 377.589C234.103 420.923 233.836 456.656 233.303 457.189C232.636 457.723 225.703 456.523 217.569 454.389C173.436 443.056 134.636 416.123 106.769 377.589C98.7693 366.523 87.036 342.923 82.236 328.389C77.7026 314.389 74.236 300.123 75.3026 299.056C75.7026 298.656 111.436 298.523 154.769 298.656L233.569 299.056L233.969 377.589ZM457.303 299.456C458.636 301.456 450.369 330.256 444.903 342.389C431.703 371.856 418.369 390.389 395.036 411.456C371.169 433.056 341.303 448.389 307.836 456.123C303.303 457.189 299.303 457.723 298.903 457.323C297.836 456.256 298.103 300.256 299.169 299.323C300.369 297.989 456.636 298.123 457.303 299.456Z" fill="#A41720" style="fill:#A41720;fill:color(display-p3 0.6431 0.0902 0.1255);fill-opacity:1;"/>
</svg>
